<mxfile host="Electron" agent="Mozilla/5.0 (Windows NT 10.0; Win64; x64) AppleWebKit/537.36 (KHTML, like Gecko) draw.io/27.0.9 Chrome/134.0.6998.205 Electron/35.4.0 Safari/537.36" version="27.0.9">
  <diagram name="第 1 页" id="Uu4ohIbujAP8Am82MYeT">
    <mxGraphModel dx="808" dy="583" grid="1" gridSize="10" guides="1" tooltips="1" connect="1" arrows="1" fold="1" page="1" pageScale="1" pageWidth="827" pageHeight="1169" math="0" shadow="0">
      <root>
        <mxCell id="0" />
        <mxCell id="1" parent="0" />
        <mxCell id="E4VlJ4I0n_Er3n_abnTb-23" value="DecodeThread" style="shape=umlLifeline;perimeter=lifelinePerimeter;whiteSpace=wrap;container=1;dropTarget=0;collapsible=0;recursiveResize=0;outlineConnect=0;portConstraint=eastwest;newEdgeStyle={&quot;edgeStyle&quot;:&quot;elbowEdgeStyle&quot;,&quot;elbow&quot;:&quot;vertical&quot;,&quot;curved&quot;:0,&quot;rounded&quot;:0};size=65;fillColor=#e1d5e7;strokeColor=#9673a6;" vertex="1" parent="1">
          <mxGeometry x="40" y="40" width="150" height="810" as="geometry" />
        </mxCell>
        <mxCell id="E4VlJ4I0n_Er3n_abnTb-24" value="PacketQueue" style="shape=umlLifeline;perimeter=lifelinePerimeter;whiteSpace=wrap;container=1;dropTarget=0;collapsible=0;recursiveResize=0;outlineConnect=0;portConstraint=eastwest;newEdgeStyle={&quot;edgeStyle&quot;:&quot;elbowEdgeStyle&quot;,&quot;elbow&quot;:&quot;vertical&quot;,&quot;curved&quot;:0,&quot;rounded&quot;:0};size=65;fillColor=#e1d5e7;strokeColor=#9673a6;" vertex="1" parent="1">
          <mxGeometry x="355" y="40" width="150" height="810" as="geometry" />
        </mxCell>
        <mxCell id="E4VlJ4I0n_Er3n_abnTb-25" value="" style="points=[];perimeter=orthogonalPerimeter;outlineConnect=0;targetShapes=umlLifeline;portConstraint=eastwest;newEdgeStyle={&quot;edgeStyle&quot;:&quot;elbowEdgeStyle&quot;,&quot;elbow&quot;:&quot;vertical&quot;,&quot;curved&quot;:0,&quot;rounded&quot;:0}" vertex="1" parent="E4VlJ4I0n_Er3n_abnTb-24">
          <mxGeometry x="70" y="109" width="10" height="112" as="geometry" />
        </mxCell>
        <mxCell id="E4VlJ4I0n_Er3n_abnTb-26" value="" style="points=[];perimeter=orthogonalPerimeter;outlineConnect=0;targetShapes=umlLifeline;portConstraint=eastwest;newEdgeStyle={&quot;edgeStyle&quot;:&quot;elbowEdgeStyle&quot;,&quot;elbow&quot;:&quot;vertical&quot;,&quot;curved&quot;:0,&quot;rounded&quot;:0}" vertex="1" parent="E4VlJ4I0n_Er3n_abnTb-24">
          <mxGeometry x="70" y="357" width="10" height="62" as="geometry" />
        </mxCell>
        <mxCell id="E4VlJ4I0n_Er3n_abnTb-27" value="" style="points=[];perimeter=orthogonalPerimeter;outlineConnect=0;targetShapes=umlLifeline;portConstraint=eastwest;newEdgeStyle={&quot;edgeStyle&quot;:&quot;elbowEdgeStyle&quot;,&quot;elbow&quot;:&quot;vertical&quot;,&quot;curved&quot;:0,&quot;rounded&quot;:0}" vertex="1" parent="E4VlJ4I0n_Er3n_abnTb-24">
          <mxGeometry x="70" y="509" width="10" height="116" as="geometry" />
        </mxCell>
        <mxCell id="E4VlJ4I0n_Er3n_abnTb-28" value="" style="points=[];perimeter=orthogonalPerimeter;outlineConnect=0;targetShapes=umlLifeline;portConstraint=eastwest;newEdgeStyle={&quot;edgeStyle&quot;:&quot;elbowEdgeStyle&quot;,&quot;elbow&quot;:&quot;vertical&quot;,&quot;curved&quot;:0,&quot;rounded&quot;:0}" vertex="1" parent="E4VlJ4I0n_Er3n_abnTb-24">
          <mxGeometry x="70" y="667" width="10" height="110" as="geometry" />
        </mxCell>
        <mxCell id="E4VlJ4I0n_Er3n_abnTb-29" value="DemuxThread" style="shape=umlLifeline;perimeter=lifelinePerimeter;whiteSpace=wrap;container=1;dropTarget=0;collapsible=0;recursiveResize=0;outlineConnect=0;portConstraint=eastwest;newEdgeStyle={&quot;edgeStyle&quot;:&quot;elbowEdgeStyle&quot;,&quot;elbow&quot;:&quot;vertical&quot;,&quot;curved&quot;:0,&quot;rounded&quot;:0};size=65;fillColor=#e1d5e7;strokeColor=#9673a6;" vertex="1" parent="1">
          <mxGeometry x="562" y="40" width="150" height="810" as="geometry" />
        </mxCell>
        <mxCell id="E4VlJ4I0n_Er3n_abnTb-30" value="alt" style="shape=umlFrame;dashed=1;pointerEvents=0;dropTarget=0;strokeColor=#B3B3B3;height=20;width=30;fontStyle=1;strokeWidth=3;" vertex="1" parent="1">
          <mxGeometry x="80" y="271" width="568" height="556" as="geometry" />
        </mxCell>
        <mxCell id="E4VlJ4I0n_Er3n_abnTb-31" value="[等待超时]" style="text;strokeColor=none;fillColor=none;align=center;verticalAlign=middle;whiteSpace=wrap;fontStyle=1" vertex="1" parent="E4VlJ4I0n_Er3n_abnTb-30">
          <mxGeometry x="30" width="538" height="20" as="geometry" />
        </mxCell>
        <mxCell id="E4VlJ4I0n_Er3n_abnTb-32" value="[被生产者唤醒]" style="shape=line;dashed=1;whiteSpace=wrap;verticalAlign=top;labelPosition=center;verticalLabelPosition=middle;align=center;strokeColor=#B3B3B3;strokeWidth=2;" vertex="1" parent="E4VlJ4I0n_Er3n_abnTb-30">
          <mxGeometry y="203" width="568" height="3" as="geometry" />
        </mxCell>
        <mxCell id="E4VlJ4I0n_Er3n_abnTb-33" value="pop(100ms_timeout)" style="verticalAlign=bottom;edgeStyle=elbowEdgeStyle;elbow=vertical;curved=0;rounded=0;endArrow=block;" edge="1" parent="1" source="E4VlJ4I0n_Er3n_abnTb-23" target="E4VlJ4I0n_Er3n_abnTb-25">
          <mxGeometry relative="1" as="geometry">
            <Array as="points">
              <mxPoint x="279" y="149" />
            </Array>
          </mxGeometry>
        </mxCell>
        <mxCell id="E4VlJ4I0n_Er3n_abnTb-34" value="1" style="ellipse;aspect=fixed;fillColor=#000000;align=center;fontColor=#FFFFFF;" vertex="1" parent="E4VlJ4I0n_Er3n_abnTb-33">
          <mxGeometry width="14" height="14" relative="1" as="geometry">
            <mxPoint x="-163" y="-7" as="offset" />
          </mxGeometry>
        </mxCell>
        <mxCell id="E4VlJ4I0n_Er3n_abnTb-35" value="开始等待 (wait_for), 并自动释放锁" style="verticalAlign=bottom;edgeStyle=elbowEdgeStyle;elbow=vertical;curved=0;rounded=0;dashed=1;dashPattern=2 3;endArrow=block;" edge="1" parent="1" source="E4VlJ4I0n_Er3n_abnTb-25" target="E4VlJ4I0n_Er3n_abnTb-23">
          <mxGeometry relative="1" as="geometry">
            <Array as="points">
              <mxPoint x="282" y="251" />
            </Array>
          </mxGeometry>
        </mxCell>
        <mxCell id="E4VlJ4I0n_Er3n_abnTb-36" value="2" style="ellipse;aspect=fixed;fillColor=#000000;align=center;fontColor=#FFFFFF;" vertex="1" parent="E4VlJ4I0n_Er3n_abnTb-35">
          <mxGeometry width="14" height="14" relative="1" as="geometry">
            <mxPoint x="149" y="-7" as="offset" />
          </mxGeometry>
        </mxCell>
        <mxCell id="E4VlJ4I0n_Er3n_abnTb-37" value="被唤醒(超时), 重新加锁" style="verticalAlign=bottom;edgeStyle=elbowEdgeStyle;elbow=vertical;curved=0;rounded=0;dashed=1;dashPattern=2 3;endArrow=block;" edge="1" parent="1" source="E4VlJ4I0n_Er3n_abnTb-23" target="E4VlJ4I0n_Er3n_abnTb-26">
          <mxGeometry relative="1" as="geometry">
            <Array as="points">
              <mxPoint x="279" y="397" />
            </Array>
          </mxGeometry>
        </mxCell>
        <mxCell id="E4VlJ4I0n_Er3n_abnTb-38" value="3" style="ellipse;aspect=fixed;fillColor=#000000;align=center;fontColor=#FFFFFF;" vertex="1" parent="E4VlJ4I0n_Er3n_abnTb-37">
          <mxGeometry width="14" height="14" relative="1" as="geometry">
            <mxPoint x="-163" y="-7" as="offset" />
          </mxGeometry>
        </mxCell>
        <mxCell id="E4VlJ4I0n_Er3n_abnTb-39" value="pop() 返回 false" style="verticalAlign=bottom;edgeStyle=elbowEdgeStyle;elbow=vertical;curved=0;rounded=0;dashed=1;dashPattern=2 3;endArrow=block;" edge="1" parent="1" source="E4VlJ4I0n_Er3n_abnTb-26" target="E4VlJ4I0n_Er3n_abnTb-23">
          <mxGeometry relative="1" as="geometry">
            <Array as="points">
              <mxPoint x="282" y="449" />
            </Array>
          </mxGeometry>
        </mxCell>
        <mxCell id="E4VlJ4I0n_Er3n_abnTb-40" value="4" style="ellipse;aspect=fixed;fillColor=#000000;align=center;fontColor=#FFFFFF;" vertex="1" parent="E4VlJ4I0n_Er3n_abnTb-39">
          <mxGeometry width="14" height="14" relative="1" as="geometry">
            <mxPoint x="149" y="-7" as="offset" />
          </mxGeometry>
        </mxCell>
        <mxCell id="E4VlJ4I0n_Er3n_abnTb-41" value="push(new_packet)" style="verticalAlign=bottom;edgeStyle=elbowEdgeStyle;elbow=vertical;curved=0;rounded=0;endArrow=block;" edge="1" parent="1" source="E4VlJ4I0n_Er3n_abnTb-29" target="E4VlJ4I0n_Er3n_abnTb-27">
          <mxGeometry relative="1" as="geometry">
            <Array as="points">
              <mxPoint x="547" y="549" />
            </Array>
          </mxGeometry>
        </mxCell>
        <mxCell id="E4VlJ4I0n_Er3n_abnTb-42" value="5" style="ellipse;aspect=fixed;fillColor=#000000;align=center;fontColor=#FFFFFF;" vertex="1" parent="E4VlJ4I0n_Er3n_abnTb-41">
          <mxGeometry width="14" height="14" relative="1" as="geometry">
            <mxPoint x="95" y="-7" as="offset" />
          </mxGeometry>
        </mxCell>
        <mxCell id="E4VlJ4I0n_Er3n_abnTb-43" value="notify()" style="verticalAlign=bottom;edgeStyle=elbowEdgeStyle;elbow=vertical;curved=0;rounded=0;endArrow=block;" edge="1" parent="1" source="E4VlJ4I0n_Er3n_abnTb-27" target="E4VlJ4I0n_Er3n_abnTb-23">
          <mxGeometry relative="1" as="geometry">
            <Array as="points">
              <mxPoint x="282" y="603" />
            </Array>
          </mxGeometry>
        </mxCell>
        <mxCell id="E4VlJ4I0n_Er3n_abnTb-44" value="6" style="ellipse;aspect=fixed;fillColor=#000000;align=center;fontColor=#FFFFFF;" vertex="1" parent="E4VlJ4I0n_Er3n_abnTb-43">
          <mxGeometry width="14" height="14" relative="1" as="geometry">
            <mxPoint x="149" y="-7" as="offset" />
          </mxGeometry>
        </mxCell>
        <mxCell id="E4VlJ4I0n_Er3n_abnTb-45" value="push() 成功" style="verticalAlign=bottom;edgeStyle=elbowEdgeStyle;elbow=vertical;curved=0;rounded=0;dashed=1;dashPattern=2 3;endArrow=block;" edge="1" parent="1" source="E4VlJ4I0n_Er3n_abnTb-27" target="E4VlJ4I0n_Er3n_abnTb-29">
          <mxGeometry relative="1" as="geometry">
            <Array as="points">
              <mxPoint x="544" y="655" />
            </Array>
          </mxGeometry>
        </mxCell>
        <mxCell id="E4VlJ4I0n_Er3n_abnTb-46" value="7" style="ellipse;aspect=fixed;fillColor=#000000;align=center;fontColor=#FFFFFF;" vertex="1" parent="E4VlJ4I0n_Er3n_abnTb-45">
          <mxGeometry width="14" height="14" relative="1" as="geometry">
            <mxPoint x="-109" y="-7" as="offset" />
          </mxGeometry>
        </mxCell>
        <mxCell id="E4VlJ4I0n_Er3n_abnTb-47" value="被唤醒, 重新加锁并检查" style="verticalAlign=bottom;edgeStyle=elbowEdgeStyle;elbow=vertical;curved=0;rounded=0;dashed=1;dashPattern=2 3;endArrow=block;" edge="1" parent="1" source="E4VlJ4I0n_Er3n_abnTb-23" target="E4VlJ4I0n_Er3n_abnTb-28">
          <mxGeometry relative="1" as="geometry">
            <Array as="points">
              <mxPoint x="279" y="707" />
            </Array>
          </mxGeometry>
        </mxCell>
        <mxCell id="E4VlJ4I0n_Er3n_abnTb-48" value="8" style="ellipse;aspect=fixed;fillColor=#000000;align=center;fontColor=#FFFFFF;" vertex="1" parent="E4VlJ4I0n_Er3n_abnTb-47">
          <mxGeometry width="14" height="14" relative="1" as="geometry">
            <mxPoint x="-163" y="-7" as="offset" />
          </mxGeometry>
        </mxCell>
        <mxCell id="E4VlJ4I0n_Er3n_abnTb-49" value="pop() 返回 true" style="verticalAlign=bottom;edgeStyle=elbowEdgeStyle;elbow=vertical;curved=0;rounded=0;dashed=1;dashPattern=2 3;endArrow=block;" edge="1" parent="1" source="E4VlJ4I0n_Er3n_abnTb-28" target="E4VlJ4I0n_Er3n_abnTb-23">
          <mxGeometry relative="1" as="geometry">
            <Array as="points">
              <mxPoint x="282" y="807" />
            </Array>
          </mxGeometry>
        </mxCell>
        <mxCell id="E4VlJ4I0n_Er3n_abnTb-50" value="9" style="ellipse;aspect=fixed;fillColor=#000000;align=center;fontColor=#FFFFFF;" vertex="1" parent="E4VlJ4I0n_Er3n_abnTb-49">
          <mxGeometry width="14" height="14" relative="1" as="geometry">
            <mxPoint x="149" y="-7" as="offset" />
          </mxGeometry>
        </mxCell>
        <mxCell id="E4VlJ4I0n_Er3n_abnTb-51" value="加锁后检查，发现队列为空" style="fillColor=#ffff88;strokeColor=#9E916F;" vertex="1" parent="1">
          <mxGeometry x="324" y="169" width="213" height="48" as="geometry" />
        </mxCell>
        <mxCell id="E4VlJ4I0n_Er3n_abnTb-52" value="100ms内无事发生" style="fillColor=#ffff88;strokeColor=#9E916F;" vertex="1" parent="1">
          <mxGeometry x="90" y="317" width="365" height="48" as="geometry" />
        </mxCell>
        <mxCell id="E4VlJ4I0n_Er3n_abnTb-53" value="检查通过, 取出packet" style="fillColor=#ffff88;strokeColor=#9E916F;" vertex="1" parent="1">
          <mxGeometry x="345" y="727" width="171" height="48" as="geometry" />
        </mxCell>
        <mxCell id="E4VlJ4I0n_Er3n_abnTb-54" value="PacketQueue" style="rounded=0;whiteSpace=wrap;html=1;fillColor=#e1d5e7;strokeColor=#9673a6;" vertex="1" parent="1">
          <mxGeometry x="355.5" y="850" width="150" height="60" as="geometry" />
        </mxCell>
        <mxCell id="E4VlJ4I0n_Er3n_abnTb-55" value="DecodeThread" style="rounded=0;whiteSpace=wrap;html=1;fillColor=#e1d5e7;strokeColor=#9673a6;" vertex="1" parent="1">
          <mxGeometry x="40" y="850" width="150" height="60" as="geometry" />
        </mxCell>
        <mxCell id="E4VlJ4I0n_Er3n_abnTb-56" value="DemuxThread" style="rounded=0;whiteSpace=wrap;html=1;fillColor=#e1d5e7;strokeColor=#9673a6;" vertex="1" parent="1">
          <mxGeometry x="562" y="850" width="150" height="60" as="geometry" />
        </mxCell>
      </root>
    </mxGraphModel>
  </diagram>
</mxfile>
